<?xml version="1.0" encoding="utf-8"?>
<!-- Generator: Adobe Illustrator 22.1.0, SVG Export Plug-In . SVG Version: 6.00 Build 0)  -->
<svg version="1.1" id="Layer_1" xmlns="http://www.w3.org/2000/svg" xmlns:xlink="http://www.w3.org/1999/xlink" x="0px" y="0px"
	 viewBox="0 0 20 20" style="enable-background:new 0 0 20 20;" xml:space="preserve">
<g>
	<path d="M10,2c4.4,0,8,3.6,8,8s-3.6,8-8,8s-8-3.6-8-8S5.6,2,10,2 M10,0C4.5,0,0,4.5,0,10s4.5,10,10,10c5.5,0,10-4.5,10-10
		S15.5,0,10,0L10,0z"/>
</g>
<g>
	<g>
		<polygon points="11.4,10 14.2,12.8 12.8,14.2 10,11.4 7.2,14.2 5.8,12.8 8.6,10 5.8,7.2 7.2,5.8 10,8.6 12.8,5.8 14.2,7.2 		"/>
	</g>
</g>
</svg>
