<svg width="0" height="0" class="hidden">
	<symbol version="1.1" id="facebook" xmlns="http://www.w3.org/2000/svg" xmlns:xlink="http://www.w3.org/1999/xlink" x="0px" y="0px" width="100%" height="100%" viewBox="91.882 1914 14.118 14.174" enable-background="new 91.882 1914 14.118 14.174" xml:space="preserve">
	   <path fill="#FFFFFF" d="M104.734,1914H93.147c-0.43,0-1.265,0.838-1.265,1.271v11.631c0,0.432,0.835,1.271,1.265,1.271h6.034v-5.381h-1.945v-1.945h1.945v-1.495c0-1.832,1.38-2.918,3.007-2.918c0.779,0,1.189,0.084,1.385,0.11v1.854h-1.38c-0.885,0-1.05,0.439-1.05,1.06v1.391h2.456l-0.32,1.945h-2.136v5.381h3.591c0.431,0,1.266-0.839,1.266-1.271v-11.631C106,1914.838,105.165,1914,104.734,1914z"></path>
	</symbol>
	<symbol version="1.1" id="twitter" xmlns="http://www.w3.org/2000/svg" xmlns:xlink="http://www.w3.org/1999/xlink" x="0px" y="0px" width="100%" height="100%" viewBox="50 68.734 200 162.536" enable-background="new 50 68.734 200 162.536" xml:space="preserve">
	   <path fill="#FFFFFF" d="M250,87.974c-7.357,3.264-15.268,5.469-23.566,6.461c8.471-5.078,14.979-13.119,18.041-22.701c-7.929,4.703-16.709,8.117-26.057,9.957c-7.484-7.975-18.148-12.957-29.95-12.957c-22.659,0-41.033,18.371-41.033,41.031c0,3.216,0.363,6.348,1.062,9.351c-34.102-1.711-64.336-18.047-84.574-42.872c-3.532,6.06-5.556,13.108-5.556,20.628c0,14.236,7.244,26.795,18.254,34.153c-6.726-0.213-13.053-2.059-18.585-5.132c-0.004,0.171-0.004,0.343-0.004,0.516c0,19.88,14.144,36.464,32.915,40.233c-3.443,0.938-7.068,1.439-10.81,1.439c-2.644,0-5.214-0.258-7.72-0.736c5.222,16.301,20.375,28.165,38.331,28.495c-14.043,11.007-31.735,17.565-50.96,17.565c-3.312,0-6.578-0.194-9.788-0.574c18.159,11.643,39.727,18.438,62.899,18.438c75.473,0,116.746-62.524,116.746-116.748c0-1.779-0.039-3.548-0.119-5.309C237.543,103.429,244.499,96.202,250,87.974z"></path>
	</symbol>
	<symbol version="1.1" id="youtube" xmlns="http://www.w3.org/2000/svg" xmlns:xlink="http://www.w3.org/1999/xlink" x="0px" y="0px" width="100%" height="100%" viewBox="153 1915 16 12" enable-background="new 153 1915 16 12" xml:space="preserve">
	   <path fill="#FFFFFF" d="M156.2,1915h9.6c1.769,0,3.2,1.535,3.2,3.429v5.144c0,1.894-1.434,3.428-3.2,3.428h-9.6c-1.768,0-3.2-1.535-3.2-3.428v-5.144C153,1916.535,154.433,1915,156.2,1915z"></path>
	   <path fill="#000000" d="M159,1917v8l6-4L159,1917z"></path>
	</symbol>
	<symbol version="1.1" id="insta" xmlns="http://www.w3.org/2000/svg" xmlns:xlink="http://www.w3.org/1999/xlink" x="0px" y="0px" width="100%" height="100%" viewBox="0 0 621.655 621.655" enable-background="new 0 0 621.655 621.655" xml:space="preserve">
	   <g>
		  <path fill-rule="evenodd" fill="#FFFFFF" clip-rule="evenodd" d="M310.748,621.655c-79.094,0-158.188,0.001-237.281-0.001c-3.729,0-7.437-0.094-11.155-0.6c-11.622-1.583-22.248-5.674-31.766-12.488c-15.307-10.958-25.01-25.652-28.995-44.094c-0.989-4.579-1.359-9.213-1.522-13.874c-0.055-1.552-0.015-3.107-0.015-4.661C0.013,389.148,0.013,232.359,0.013,75.571c0-3.574,0.068-7.137,0.4-10.706c1.211-13.01,5.701-24.779,13.424-35.263C24.692,14.865,39.11,5.522,57.022,1.606c4.727-1.033,9.512-1.45,14.332-1.589c1.087-0.031,2.176-0.009,3.264-0.009c157.41,0,314.82,0,472.23-0.003c3.575,0,7.135,0.122,10.701,0.491c13.16,1.361,25.003,6.059,35.502,14.039c14.723,11.191,23.818,25.961,27.408,44.085c0.783,3.957,1.308,7.973,1.174,12.04c-0.056,1.708-0.007,3.418-0.007,5.128c0,156.634,0,313.267,0,469.899c0,1.398,0.003,2.797-0.001,4.196c-0.062,19.604-7.047,36.454-20.686,50.397c-11.326,11.579-25.176,18.467-41.293,20.735c-3.871,0.545-7.734,0.638-11.618,0.638C468.936,621.656,389.842,621.655,310.748,621.655z M310.524,549.92c70.084,0,140.17,0,210.255,0c1.864,0,3.73,0.035,5.594-0.018c13.606-0.383,23.356-11.156,23.544-23.53c0.02-1.243,0.014-2.486,0.014-3.729c0-84.537,0-169.074,0-253.611c0-1.088,0.004-2.176-0.014-3.264c-0.008-0.463-0.062-0.927-0.106-1.389c-0.058-0.602-0.608-1.211-1.181-1.242c-1.238-0.068-2.479-0.142-3.719-0.145c-7.304-0.013-14.607-0.006-21.912-0.006c-7.459,0-14.918-0.004-22.377,0.004c-1.086,0.001-2.174,0.043-3.26,0.088c-0.556,0.022-1.201,0.759-1.114,1.244c0.082,0.457,0.175,0.914,0.28,1.367c1.861,8.023,3.412,16.096,4.342,24.293c0.72,6.338,1.206,12.687,1.258,19.057c0.118,14.185-1.314,28.215-4.301,42.099c-5.838,27.149-17.086,51.845-33.66,74.081c-12.924,17.341-28.387,32.085-46.334,44.192c-12.939,8.729-26.714,15.801-41.395,21.13c-13.93,5.056-28.216,8.518-42.945,10.227c-7.266,0.842-14.543,1.329-21.848,1.397c-7.932,0.075-15.825-0.531-23.709-1.425c-6.65-0.753-13.227-1.888-19.732-3.392c-28.455-6.58-54.166-18.905-76.917-37.243c-27.354-22.049-47.291-49.516-59.673-82.424c-6.109-16.237-9.887-33.025-11.324-50.295c-1.031-12.406-0.973-24.832,0.527-37.229c0.859-7.1,2.006-14.142,3.646-21.104c0.355-1.51,0.658-3.033,0.971-4.553c0.131-0.636-0.326-1.348-0.9-1.374c-1.394-0.064-2.789-0.135-4.184-0.136c-14.142-0.01-28.283-0.018-42.424-0.001c-6.898,0.008-6.176-0.626-6.178,6.306c-0.011,84.383-0.007,168.764-0.006,253.146c0,1.398-0.039,2.799,0.032,4.194c0.127,2.491,0.565,4.924,1.393,7.294c3.625,10.38,13.159,15.751,21.973,15.969c1.864,0.047,3.729,0.02,5.595,0.02C170.665,549.92,240.595,549.92,310.524,549.92z M310.995,191.337c-66.451-0.002-119.594,53.702-119.657,119.393c-0.062,65.738,52.971,119.594,119.389,119.662c66.296,0.068,119.591-53.473,119.669-119.396C430.473,244.995,377.201,191.484,310.995,191.337z M549.928,131.281c0.001,0,0.002,0,0.003,0c0-10.873,0-21.746-0.001-32.619c0-1.243,0.048-2.489-0.026-3.728c-0.51-8.493-4.248-15.11-11.512-19.648c-3.506-2.19-7.371-3.231-11.465-3.487c-1.084-0.068-2.174-0.035-3.261-0.035c-22.367-0.001-44.734,0.003-67.102-0.006c-2.49-0.001-4.955,0.088-7.407,0.631c-10.848,2.403-18.353,11.827-18.697,22.175c-0.041,1.242-0.033,2.485-0.033,3.728c-0.001,22.212-0.001,44.424,0,66.636c0,1.087,0.025,2.174,0.017,3.262c-0.019,2.198,0.409,4.319,1.062,6.406c2.854,9.126,10.975,15.708,20.499,16.56c1.544,0.138,3.103,0.154,4.654,0.155c22.367,0.009,44.734,0.012,67.102-0.006c1.859-0.001,3.725-0.108,5.578-0.272c1.074-0.096,2.155-0.314,3.188-0.628c8.549-2.604,13.994-8.274,16.559-16.802c0.727-2.418,0.85-4.878,0.848-7.372C549.922,154.58,549.928,142.931,549.928,131.281z"></path>
	   </g>
	</symbol>
</svg>